<svg width="16px" height="16px" viewBox="0 0 16 16" class="global-header-menu__icon" xmlns="http://www.w3.org/2000/svg" aria-labelledby="title" role="img">
  <title>Menu</title>
  <path d="M3.5 2A1.5 1.5 0 0 1 5 3.5 1.5 1.5 0 0 1 3.5 5 1.5 1.5 0 0 1 2 3.5 1.5 1.5 0 0 1 3.5 2zM8 2a1.5 1.5 0 0 1 1.5 1.5A1.5 1.5 0 0 1 8 5a1.5 1.5 0 0 1-1.5-1.5A1.5 1.5 0 0 1 8 2zM12.5 2A1.5 1.5 0 0 1 14 3.5 1.5 1.5 0 0 1 12.5 5 1.5 1.5 0 0 1 11 3.5 1.5 1.5 0 0 1 12.5 2zM3.5 6.5A1.5 1.5 0 0 1 5 8a1.5 1.5 0 0 1-1.5 1.5A1.5 1.5 0 0 1 2 8a1.5 1.5 0 0 1 1.5-1.5zM8 6.5A1.5 1.5 0 0 1 9.5 8 1.5 1.5 0 0 1 8 9.5 1.5 1.5 0 0 1 6.5 8 1.5 1.5 0 0 1 8 6.5zM12.5 6.5A1.5 1.5 0 0 1 14 8a1.5 1.5 0 0 1-1.5 1.5A1.5 1.5 0 0 1 11 8a1.5 1.5 0 0 1 1.5-1.5zM3.5 11A1.5 1.5 0 0 1 5 12.5 1.5 1.5 0 0 1 3.5 14 1.5 1.5 0 0 1 2 12.5 1.5 1.5 0 0 1 3.5 11zM8 11a1.5 1.5 0 0 1 1.5 1.5A1.5 1.5 0 0 1 8 14a1.5 1.5 0 0 1-1.5-1.5A1.5 1.5 0 0 1 8 11zM12.5 11a1.5 1.5 0 0 1 1.5 1.5 1.5 1.5 0 0 1-1.5 1.5 1.5 1.5 0 0 1-1.5-1.5 1.5 1.5 0 0 1 1.5-1.5z"></path>

</svg>