<svg xmlns="http://www.w3.org/2000/svg" width="16.878" height="16.878" viewBox="0 0 16.878 16.878">
                        <path id="icon_search" data-name="icon search" d="M307.669,2014.446l-4.334-4.334a6.578,6.578,0,0,0,1-3.445,6.668,6.668,0,1,0-6.668,6.667,6.58,6.58,0,0,0,3.445-1l4.334,4.334a.845.845,0,0,0,1.111,0l1.111-1.111A.846.846,0,0,0,307.669,2014.446Zm-10-3.334a4.445,4.445,0,1,1,4.445-4.445A4.458,4.458,0,0,1,297.668,2011.113Z" transform="translate(-291 -2000)"></path>
                    </svg>