<svg fill="none" height="23" viewBox="0 0 22 23" width="22" xmlns="http://www.w3.org/2000/svg"><path clip-rule="evenodd" d="m11 .269531c-6.05 0-11 4.949999-11 10.999969 0 6.05 4.95 11 11 11s11-4.95 11-11c0-6.04997-4.95-10.999969-11-10.999969zm6.1875 14.781269c0 1.3062-1.1 2.4062-2.4063 2.4062h-7.56245c-1.30625 0-2.40625-1.1-2.40625-2.4062v-7.56252c0-1.30625 1.1-2.40625 2.40625-2.40625h7.56245c1.3063 0 2.4063 1.1 2.4063 2.40625zm-1.65-8.59377h.275v2.0625h-2.0625v-2.0625zm-2.475 4.81247c0 1.1-.8938 2.0625-2.0625 2.0625-1.16875 0-2.0625-.8937-2.0625-2.0625 0-.4812.34375-2.06247 2.0625-2.06247 1.7188 0 2.0625 1.58127 2.0625 2.06247zm2.6812-1.37497h-1.6499c.1374.41247.2749.96247.2749 1.37497 0 1.8563-1.5125 3.3688-3.3687 3.3688-1.85625 0-3.36875-1.5125-3.36875-3.3688 0-.4812.06875-.9625.275-1.37497h-1.7875v5.01877c0 .6875.55 1.1687 1.16875 1.1687h7.2875c.6875 0 1.1687-.55 1.1687-1.1687z" fill="#7c7c7d" fill-rule="evenodd"/></svg>