<svg xmlns="http://www.w3.org/2000/svg" width="190.043" height="42.128"><path d="M36.392.032H12.131L0 21.043l12.131 21.011h24.261l12.131-21.011z" fill="#ed5725"/><path d="M.016 21.036l36.378 21.013 12.124-21-35.654-7.455z" fill="#f16b30"/><path d="M36.392-.004L0 21.043 12.131-.004z" fill="#f2793f"/><path d="M.041 21.087l12.131 21.042 24.217-.078z" fill="#ed5725"/><path d="M10.597 30.38h8.893l4.351-7.346 4.157 7.25h8.7L23.744 7.952z" fill="#fff"/><g data-name="Group 1731"><path data-name="Path 2202" d="M73.874 27.04H63.211l-2.1 4.936h-4.082l9.6-21.327h3.9l9.627 21.327h-4.143zm-1.31-3.108l-4.022-9.323-3.991 9.323z"/><path data-name="Path 2203" d="M97.364 9.37v22.606h-3.656v-2.1a5.89 5.89 0 01-2.331 1.737 7.88 7.88 0 01-3.062.579 8.569 8.569 0 01-4.22-1.036 7.44 7.44 0 01-2.94-2.94 9.467 9.467 0 010-8.729 7.471 7.471 0 012.94-2.925 8.576 8.576 0 014.22-1.036 7.734 7.734 0 012.955.548 5.946 5.946 0 012.285 1.645V9.371zM91.24 28.305a4.508 4.508 0 001.737-1.782 5.938 5.938 0 000-5.362 4.516 4.516 0 00-1.737-1.783 5.188 5.188 0 00-4.936 0 4.517 4.517 0 00-1.737 1.783 5.939 5.939 0 000 5.362 4.509 4.509 0 001.737 1.782 5.186 5.186 0 004.936 0z"/><path data-name="Path 2204" d="M113.161 17.245a6.656 6.656 0 011.9 5.195v9.536h-3.6v-1.981a4.43 4.43 0 01-2 1.63 7.8 7.8 0 01-3.123.564 7.656 7.656 0 01-3.2-.625 4.936 4.936 0 01-2.117-1.737 4.4 4.4 0 01-.746-2.513 4.307 4.307 0 011.63-3.519q1.63-1.325 5.134-1.325h4.2v-.244a3.335 3.335 0 00-1.021-2.62 4.415 4.415 0 00-3.031-.914 8.751 8.751 0 00-2.7.427 6.628 6.628 0 00-2.239 1.188l-1.493-2.772a9.243 9.243 0 013.077-1.493 13.7 13.7 0 013.809-.518 7.935 7.935 0 015.52 1.721zm-3.473 11.517a3.565 3.565 0 001.569-1.874v-1.893h-3.93q-3.29 0-3.29 2.163a1.942 1.942 0 00.823 1.645 3.769 3.769 0 002.285.609 4.916 4.916 0 002.543-.65z"/><path data-name="Path 2205" d="M144.1 15.707l-6 16.269h-3.658l-4.2-11.212-4.265 11.212h-3.656l-5.971-16.269h3.595l4.3 12 4.479-12h3.2l4.387 12.065 4.417-12.065z"/><path data-name="Path 2206" d="M157.916 17.245a6.656 6.656 0 011.9 5.195v9.536h-3.595v-1.981a4.431 4.431 0 01-2 1.63 7.806 7.806 0 01-3.123.564 7.654 7.654 0 01-3.2-.625 4.937 4.937 0 01-2.117-1.737 4.4 4.4 0 01-.746-2.513 4.308 4.308 0 011.63-3.519q1.629-1.325 5.134-1.325h4.2v-.244a3.336 3.336 0 00-1.02-2.62 4.416 4.416 0 00-3.032-.914 8.753 8.753 0 00-2.7.427 6.629 6.629 0 00-2.239 1.188l-1.475-2.772a9.244 9.244 0 013.077-1.493 13.691 13.691 0 013.808-.518 7.936 7.936 0 015.498 1.721zm-3.473 11.517a3.564 3.564 0 001.569-1.874v-1.893h-3.93q-3.29 0-3.29 2.163a1.941 1.941 0 00.823 1.645 3.769 3.769 0 002.285.609 4.917 4.917 0 002.543-.65z"/><path data-name="Path 2207" d="M172.585 15.524v3.625a4.851 4.851 0 00-.884-.091 4.6 4.6 0 00-3.473 1.295 5.163 5.163 0 00-1.249 3.732v7.891h-3.809V15.707h3.626v2.376q1.645-2.559 5.789-2.559z"/><path data-name="Path 2208" d="M189.982 25.06h-12.765a4.425 4.425 0 001.752 2.849 5.742 5.742 0 003.519 1.051 5.929 5.929 0 004.418-1.767l2.041 2.346a6.876 6.876 0 01-2.772 1.98 10.985 10.985 0 01-8.5-.4 7.676 7.676 0 01-3.153-2.97 8.387 8.387 0 01-1.112-4.311 8.514 8.514 0 011.081-4.281 7.676 7.676 0 013-2.97 8.758 8.758 0 014.326-1.066 8.539 8.539 0 014.25 1.051 7.445 7.445 0 012.925 2.955 8.964 8.964 0 011.051 4.4q0 .402-.061 1.133zm-11.257-5.408a4.548 4.548 0 00-1.538 2.879h9.231a4.493 4.493 0 00-1.493-2.864 4.541 4.541 0 00-3.108-1.1 4.6 4.6 0 00-3.092 1.085z"/></g></svg>