<svg fill="none" height="23" viewBox="0 0 22 23" width="22" xmlns="http://www.w3.org/2000/svg"><path clip-rule="evenodd" d="m11 .269531c-6.05 0-11 4.949999-11 10.999969 0 6.05 4.95 11 11 11s11-4.95 11-11c0-6.04997-4.95-10.999969-11-10.999969zm1.1 14.781269c-.8937 0-1.7187-.4813-1.9938-.9625 0 0-.4812 1.7875-.54995 2.2-.34375 1.2375-1.375 2.475-1.44375 2.6125-.06875.0687-.20625.0687-.20625-.0688s-.275-1.7187 0-3.025l1.03125-4.3312s-.275-.4813-.275-1.2375c0-1.16877.6875-2.06252 1.5812-2.06252.7563 0 1.1001.55 1.1001 1.16875 0 .75627-.4813 1.78747-.6876 2.81877-.2062.825.4126 1.5125 1.3063 1.5125 1.5125 0 2.6125-1.925 2.6125-4.19377 0-1.71875-1.2375-3.025-3.3687-3.025-2.47505 0-3.98755 1.7875-3.98755 3.78127 0 .6875.20625 1.1687.55 1.5812.1375.2063.1375.275.1375.4125l-.34375.6188c-.06875.2062-.20625.275-.4125.2062-1.1-.4812-1.65-1.65-1.65-3.025 0-2.26872 1.925-4.94997 5.8438-4.94997 3.0937 0 5.1562 2.2 5.1562 4.5375 0 3.09377-1.7875 5.43127-4.4 5.43127z" fill="#7c7c7d" fill-rule="evenodd"/></svg>