<svg fill="none" height="257" viewBox="0 0 1756 257" width="1756" xmlns="http://www.w3.org/2000/svg"><g fill="#191919"><path clip-rule="evenodd" d="m916.96 66.7499h39.64l-3.04 14.18h-39.63l-22.03 101.0001c-1 4.54-1.57 9.17-1.7 13.82 0 12.79 8.13 19.06 21 19.06 10.04-.29 19.83-3.12 28.47-8.22l-2.78 14.8c-9.47 5.19-20.09 7.92-30.89 7.91-21 0-35.57-10.84-35.57-30.26.16-5.43.84-10.83 2.01-16.13l22.39-101.9701h-23.73l3.04-14.18h23.73l9.47-42.43 20.59-7.86-10.96 50.29zm-107.13 0h40.36l-28.47 130.9501c-.87 3.45-1.44 6.98-1.7 10.53 0 4.26 2.73 6.93 8.13 6.93 5.03-.21 9.92-1.69 14.21-4.32l-3.04 13.51c-5.52 3.31-11.83 5.09-18.27 5.14-13.23 0-20.33-7.24-20.33-18.44.19-4.1.76-8.18 1.7-12.17l25.74-117.7501h-21.36l3.04-14.38zm52.92-47.37c-.44 4.24-2.41 8.17-5.53 11.08s-7.19 4.59-11.46 4.74c-2.73 0-5.35-1.08-7.28-3.01s-3.02-4.54-3.02-7.27c.32-4.12 2.16-7.98 5.16-10.83s6.96-4.47997 11.11-4.57997c2.76-.11 5.46.84997 7.52 2.69997 2.06 1.84 3.31 4.41 3.5 7.17zm-127.35 88.5201c0-8.8901-5.77-15.4101-16.94-15.4101-22.7 0-41.7 22.7101-49.16 47.0601 6.04 1.2 12.17 1.86 18.33 1.95 31.2-.05 47.77-14.54 47.77-33.6zm41.18 0c0 33.24-33.56 59.54-82.72 59.54-10.01.04-20-.96-29.81-2.98 0 1.34-.36 2.67-.36 3.65 0 20.55 13.9 31.9 34.23 31.9 19.95-1.02 39.36-6.78 56.63-16.8l-6.44 30.82c-18.9 10.03-39.96 15.32-61.36 15.41-38.97 0-68.16-19.42-68.16-59.23 0-54.3 44.42-106.2401 103.73-106.2401 31.4-.15 54.46 14.6401 54.46 43.9201h-.21zm-159.58 1.95c-.11 2.99-.45 5.96-1.03 8.89l-43.34.97c.41-2.27.63-4.57.67-6.88 0-10.84-4.07-20.5501-16.94-20.5501-13.9 0-25.74 10.2701-33.92 23.0101-9.96 16.27-15.44 34.88-15.91 53.94 0 20.55 11.84 30.82 33.56 30.82 19.76-1.02 38.97-6.89 55.9-17.11l-6.8 30.57c-17.62 10.2-37.59 15.65-57.96 15.82-39.64 0-70.16-18.08-70.16-59.54 0-54.97 40.72-105.9301 98.99-105.9301 34.28-.05 56.99 17.72 56.99 45.9801h-.05zm-230.21 50.34 14.72-66.1201c-3.14-1.76-6.69-2.6599-10.3-2.6199-39.33 0-64.4 46.24-64.4 79.58 0 18.75 7.82 28.61 23.06 28.61 4.63.19 9.24-.64 13.52-2.41s8.11-4.46 11.24-7.86c6.37-8.6 10.56-18.61 12.2-29.18h-.05zm41.18-87.3301 24.4-6.27-25.74 116.8201c-.68 2.92-1.13 5.89-1.34 8.89 0 4.26 2.37 6.58 7.46 6.58 5.41-.44 10.68-2.02 15.44-4.62l-5.15 25.02c-9.68 5.61-20.67 8.56-31.87 8.53-13.59 0-25.12-5.91-28.16-17.42-6.12 6.21-13.47 11.09-21.58 14.32s-16.8 4.74-25.53 4.43c-33.92 0-54.57-21.73-54.57-56.92.09-14.37 3.03-28.59 8.65-41.82 5.61-13.24 13.79-25.24 24.07-35.3101 10.27-10.07 22.44-18.0199 35.8-23.3899s27.65-8.0401 42.06-7.8801c12.71-.04 25.21 3.19 36.29 9.4l-.26-.36zm-211.06-71.919959h66.92l-39.74 183.910059c-.68 2.92-1.13 5.9-1.34 8.89 0 4.26 2.68 6.58 7.77 6.58 5.24-.47 10.32-2.03 14.93-4.57l-5.46 24.97c-9.66 5.66-20.66 8.63-31.86 8.58-17.91 0-30.89-7.91-30.89-26.97.11-5.99.91-11.96 2.37-17.77l32.95-152.4201h-22.03l6.38-31.179954zm-67.64 75.049959c.29-3.43-.17-6.88-1.34-10.12s-3.03-6.18-5.45-8.63c-6.13-5.14-15.91-7.24-30.89-7.24h-26.2l-17.3 78.6001h19.41c21.67 0 35.57-4.57 45.04-12.84 5.42-5.09 9.72-11.26 12.6-18.1101 2.88-6.85 4.29-14.23 4.13-21.66zm48.65-2.77c.16 12.02-2.42 23.93-7.52 34.8101-5.11 10.89-12.62 20.48-21.97 28.06-17.97 14.44-42.68 21.37-74.23 21.37h-32.17l-14.93 68.84h-47.1l38.3-176.3101h-23.73l6.79-31.9h95.23c29.81 0 50.19 4.26 64.04 15.1 11.53 8.89 17.3 21.73 17.3 40.02z" fill-rule="evenodd"/><path clip-rule="evenodd" d="m1006.65 220.66c-4.25.17-8.44-1.04-11.93-3.47-3.08-2.36-5.11-5.82-5.68-9.65l7.18-31.59c2.01-4.8 5.49-8.84 9.96-11.53 4.61-3.05 10.01-4.68 15.54-4.69 3.09-.13 6.13.78 8.64 2.58 2.45 1.97 4.11 4.74 4.7 7.83.94 4.01 1.15 8.15.61 12.23l-1.22 6.7-.28 1.27c-1.66 8.33-5.39 16.11-10.84 22.63-2.05 2.42-4.61 4.36-7.48 5.69-2.88 1.33-6.02 2.01-9.19 2zm36.2-30.93c.54-2.74.94-5.51 1.17-8.29.48-5.15-.02-10.35-1.45-15.33-1.24-4.45-3.93-8.36-7.65-11.11-3.85-2.6-8.41-3.92-13.06-3.8-5.47-.01-10.86 1.34-15.68 3.94-2.48 1.3-4.79 2.87-6.91 4.69l7.7-34.07c.09-.33.09-.68.03-1.01-.07-.33-.23-.65-.44-.91-.21-.28-.48-.5-.79-.66-.32-.15-.65-.23-1-.23h-3.57c-.57 0-1.12.2-1.56.56s-.75.85-.88 1.41l-21.97 99.87c-.07.33-.07.68 0 1.01s.22.64.42.91c.21.27.48.49.79.64s.65.22 1 .21h3.61c.56 0 1.1-.19 1.54-.54s.74-.84.86-1.38l1.22-5.2c1.63 2.02 3.65 3.7 5.91 4.97 4.31 2.36 9.17 3.56 14.09 3.47 4.11 0 8.16-.82 11.93-2.43s7.17-3.97 10-6.94c6.66-7.14 11.32-15.9 13.53-25.4l1.17-4.36z" fill-rule="evenodd"/><path clip-rule="evenodd" d="m1114.83 153.73c-.21-.35-.5-.65-.85-.85-.36-.21-.76-.32-1.17-.32h-4.04c-.43 0-.85.12-1.23.33-.39.21-.7.52-.93.88l-35.59 59.24-10.33-58.72c-.1-.52-.38-.99-.79-1.32s-.93-.51-1.45-.5h-3.81c-.36 0-.72.09-1.04.24-.33.15-.61.38-.84.65-.23.26-.41.58-.51.92-.09.34-.12.7-.05 1.05l12.35 68.8-6.44 10.87-2.77 4.17c-1.39 2.45-3.36 4.52-5.74 6.01-2.38 1.5-5.11 2.38-7.92 2.56-1.38-.08-2.74-.26-4.09-.56-.32-.05-.65-.03-.96.05-.32.08-.61.22-.87.42-.53.38-.9.95-1.04 1.59l-.51 3.37c-.11.56 0 1.13.31 1.61s.79.82 1.33.97c1.93.53 3.92.8 5.92.8 4.6-.07 9.05-1.56 12.77-4.27 4.67-3.66 8.5-8.28 11.23-13.54l48.98-81.92c.2-.37.31-.78.31-1.2s-.11-.83-.31-1.2" fill-rule="evenodd"/><path d="m1306.71 143.56c21.12 0 41.78 12.45 41.78 40.2 0 2.21-.12 5.61-.36 8.02-.06.55-.52.97-1.08.97h-59.25c1.73 9.93 8.67 16.4 19.55 16.4 7.21 0 11.82-3.99 14.32-8.75.32-.6.99-.91 1.66-.77l22.16 4.83c.68.15 1.04.88.76 1.51-5.18 11.74-16.96 23.36-39.05 23.36-29.01 0-44.46-18.92-44.46-42.88s16.08-42.88 43.98-42.88zm17.03 34.05c-1.1-9.46-7.41-14.5-16.55-14.5-11.98 0-17.03 6.15-18.92 14.5z"/><path d="m1356.06 225.71v-78.55c0-.6.49-1.08 1.08-1.08h23.05c.6 0 1.08.49 1.08 1.08v9.32c5.52-8.67 13.72-12.93 24.28-12.93 15.45 0 28.69 10.56 28.69 34.21v47.94c0 .6-.49 1.08-1.08 1.08h-23.05c-.6 0-1.08-.49-1.08-1.08v-44.32c0-10.56-5.52-16.4-13.56-16.4-8.67 0-14.19 5.68-14.19 18.6v42.11c0 .6-.49 1.08-1.08 1.08h-23.05c-.6 0-1.08-.49-1.08-1.08z"/><path d="m1435.8 146.08h24.45c.48 0 .9.31 1.04.77l18.37 60.87 18.37-60.87c.14-.46.56-.77 1.04-.77h24.45c.75 0 1.27.74 1.02 1.45l-28.12 78.26c-.22.6-.79 1-1.43 1h-30.65c-.64 0-1.21-.4-1.43-1l-28.12-78.26c-.25-.71.27-1.45 1.02-1.45z"/><path d="m1578.03 225.71v-12.32c-3.94 8.2-12.77 15.92-26.48 15.92-15.92 0-27.75-10.09-27.75-24.28 0-14.98 9.93-26.17 31.69-26.17h12.61c6.94 0 8.83-5.04 8.2-8.36-.95-5.68-5.99-8.67-13.08-8.67-8.96 0-14.38 4.95-15.06 11.77-.06.62-.63 1.07-1.25.96l-21.39-3.56c-.59-.1-1-.66-.89-1.26 3.48-18.61 21.13-26.2 39.23-26.2s38.15 4.41 38.15 37.84v44.32c0 .6-.49 1.08-1.08 1.08h-21.79c-.6 0-1.08-.49-1.08-1.08zm-19.07-14.68c10.09 0 17.03-7.57 17.81-17.03h-15.29c-9.3 0-12.61 3.78-12.45 8.99.16 5.52 4.57 8.04 9.93 8.04z"/><path d="m1605.78 165.17v-18.01c0-.6.49-1.08 1.08-1.08h9c4.18 0 7.57-3.39 7.57-7.57v-14.05c0-.6.49-1.08 1.08-1.08h20.53c.6 0 1.08.49 1.08 1.08v21.62h16.57c.6 0 1.08.49 1.08 1.08v18.01c0 .6-.49 1.08-1.08 1.08h-16.57v29.17c0 9.5 8.08 13.38 16.51 10.38.56-.2 1.15.22 1.15.82v19c0 .7-.47 1.31-1.15 1.47-2.18.52-5.2.96-8.78.96-19.55 0-32.95-6.62-32.95-35v-26.8h-14.05c-.6 0-1.08-.49-1.08-1.08z"/><path d="m1755.86 186.44c0 23.65-16.71 42.88-44.14 42.88s-44.14-19.23-44.14-42.88 16.71-42.88 44.14-42.88 44.14 19.23 44.14 42.88zm-25.22 0c0-11.67-6.46-21.44-18.92-21.44s-18.92 9.77-18.92 21.44 6.46 21.44 18.92 21.44 18.92-9.77 18.92-21.44z"/></g><path d="m1194.87 256.94c3.48 0 6.31-2.825 6.31-6.31s-2.83-6.31-6.31-6.31c-3.49 0-6.31 2.825-6.31 6.31s2.82 6.31 6.31 6.31z" fill="#87e64b"/><path d="m1231.09 207.7-35.52 3.8c-.65.07-.99-.76-.47-1.16l34.76-27.06c2.26-1.85 3.69-4.72 3.08-7.8-.62-4.72-4.51-7.8-9.44-7.18l-37.77 5.53c-.66.1-1.02-.75-.49-1.16l37.44-28.58c7.39-5.75 8-17.03 1.23-23.6-6.16-6.16-16-5.95-22.16.21l-60.32 61.35c-2.26 2.46-3.28 5.75-2.67 9.23 1.03 5.54 6.57 9.23 12.11 8.21l32.52-6.63c.71-.14 1.09.8.48 1.19l-36.08 23.09c-4.51 2.87-6.57 8-5.13 13.13 1.44 6.77 8.21 10.67 14.77 9.03l53.93-13.28c.61-.15 1.05.56.66 1.04l-8.42 10.4c-2.26 2.87 1.44 6.77 4.51 4.51l27.7-22.78c4.92-4.1 1.64-12.11-4.72-11.49z" fill="#87e64b"/></svg>