<svg fill="none" height="23" viewBox="0 0 22 23" width="22" xmlns="http://www.w3.org/2000/svg"><path clip-rule="evenodd" d="m11 .269531c-6.05 0-11 4.949999-11 10.999969 0 6.05 4.95 11 11 11s11-4.95 11-11c0-6.04997-4.95-10.999969-11-10.999969zm4.8583 8.616709v.275c0 3.20836-2.3833 6.87496-6.87495 6.87496-1.375 0-2.65833-.3666-3.66666-1.1 1.28333.1834 2.56666-.1833 3.57499-1.0083-1.1 0-1.925-.7333-2.29166-1.65.36666.0917.73333.0917 1.1 0-1.1-.1833-1.925-1.1917-1.925-2.38333.36667.18333.73333.27503 1.1.27503-.64167-.45836-1.1-1.1917-1.1-2.0167 0-.45833.09166-.825.36667-1.19166 1.19166 1.46666 2.93333 2.38333 4.95001 2.56666-.0917-.275-.0917-.45833-.0917-.64166 0-1.375 1.1-2.38334 2.3834-2.38334.7333 0 1.2833.275 1.7416.73334.55-.09167 1.8333-.275 1.8333-.275-.3666.55-.6416 1.55833-1.1 1.925z" fill="#7c7c7d" fill-rule="evenodd"/></svg>