<svg fill="none" height="23" viewBox="0 0 22 23" width="22" xmlns="http://www.w3.org/2000/svg"><path clip-rule="evenodd" d="m11 .269531c-6.05 0-11 4.949999-11 10.999969 0 6.05 4.95 11 11 11s11-4.95 11-11c0-6.04997-4.95-10.999969-11-10.999969zm7.4937 11.549969c0 1.1688-.1375 2.3375-.1375 2.3375s-.1375.9625-.6187 1.4438c-.4457.4457-.9817.5302-1.3153.5828-.0781.0123-.145.0229-.1972.0359-2.1313.1375-5.225.1375-5.225.1375s-3.91875 0-5.0875-.1375c-.061-.0122-.13499-.0222-.21852-.0335-.38714-.0525-.97908-.1328-1.43148-.5852-.48125-.4125-.61875-1.4438-.61875-1.4438s-.1375-1.1687-.1375-2.3375v-1.1c0-1.16872.1375-2.33747.1375-2.33747s.1375-.9625.61875-1.44375c.46011-.46011.96833-.53531 1.32342-.58785.06937-.01026.1329-.01966.18908-.0309 2.0625-.1375 5.225-.1375 5.225-.1375s3.1625 0 5.225.1375c.275 0 .9625.06875 1.5125.61875.4812.4125.6187 1.44375.6187 1.44375s.1375 1.16875.1375 2.33747zm-5.0187-.6875-4.05625 1.9938v-4.05627z" fill="#7c7c7d" fill-rule="evenodd"/></svg>